# xmcd
#
# Track frame offsets:
#	150
#	16130
#	34087
#	56501
#	89436
#
# Disc length: 1773 seconds
#
# Revision: 0
# Processed by: cddbd v1.5.1PL0 Copyright (c) Steve Scherf et al.
# Submitted via: dBpowerAMP V4.0
#
DISCID=3306eb05
DTITLE=Nate James - Set The Tone
DYEAR=2005
DGENRE=Soul
TTITLE0=Nate James - Set The Tone
TTITLE1=Emmanuel Ft. Nate James - Pretend
TTITLE2=Nate James - Set The Tone Part II Ft. Shaun Hollywood (TMS Club Mix)
TTITLE3=Nate James - Set The Tone Part II Ft. Shaun Hollywood (Funkiipapa remix)
TTITLE4=DATA
EXTD=
EXTT0=
EXTT1=
EXTT2=
EXTT3=
EXTT4=
PLAYORDER=
